<svg version="1.1" id="Layer_1" xmlns="http://www.w3.org/2000/svg" x="0" y="0" viewBox="0 0 256 256" style="enable-background:new 0 0 256 256" xml:space="preserve"><style>.st1{fill:#291b4a}.st3{fill:#e54890}.st5{fill:#ebe7f2}.st8{fill:#65c1d6}.st9{fill:#149cb2}</style><circle cx="128" cy="128" r="119.4" style="fill:#382b73"/><path class="st1" d="M90.038 125.283a2.498 2.498 0 0 0-3.036-1.812 19.353 19.353 0 0 0-6.108 2.748 14.498 14.498 0 0 0-5.966-6.24 2.5 2.5 0 1 0-2.429 4.369c2.244 1.249 3.867 3.295 4.571 5.765s.404 5.064-.844 7.309a2.5 2.5 0 0 0 4.37 2.431 14.506 14.506 0 0 0 1.773-8.482 14.388 14.388 0 0 1 5.859-3.051 2.502 2.502 0 0 0 1.81-3.037z"/><path class="st1" d="M44.339 167.572a23.424 23.424 0 0 0-.227 3.229c0 11.183 8.162 20.907 19.094 22.894l.223.171a18.88 18.88 0 0 0 19.224 10.703 20.576 20.576 0 0 0 15.918 7.556c10.182 0 20.555-9.353 20.555-18.532v-26.129a2.5 2.5 0 0 0-2.5-2.5c-.826 0-1.553.406-2.008 1.023a14.375 14.375 0 0 1-13.739-3.395 14.415 14.415 0 0 1-4.437-8.832 2.5 2.5 0 0 0-4.967.573 19.421 19.421 0 0 0 5.976 11.899 19.364 19.364 0 0 0 13.292 5.288c1.126 0 2.258-.105 3.383-.304v22.376c0 6.45-8.141 13.532-15.555 13.532-5.085 0-9.86-2.498-12.773-6.683a2.487 2.487 0 0 0-2.543-1.023 13.88 13.88 0 0 1-15.308-7.719 14.434 14.434 0 0 1 2.63-5.918c.38-.502.801-.966 1.239-1.41a19.441 19.441 0 0 0 7.495 7.326 19.297 19.297 0 0 0 9.262 2.366c5.595 0 11.054-2.421 14.792-6.796.027.121.063.239.085.361a2.5 2.5 0 1 0 4.916-.909 14.52 14.52 0 0 0-6.087-9.382 14.524 14.524 0 0 0-10.939-2.33 2.5 2.5 0 0 0 .91 4.917 9.552 9.552 0 0 1 7.195 1.532c.449.309.86.658 1.245 1.03-4.056 6.26-12.334 8.448-18.984 4.821a14.42 14.42 0 0 1-5.788-5.843 14.283 14.283 0 0 1 2.968-1.036 2.501 2.501 0 0 0-1.099-4.878 19.424 19.424 0 0 0-11.193 7.211 19.477 19.477 0 0 0-3.036 5.888c-8.303-1.778-14.444-9.258-14.444-17.849 0-.35.03-.704.051-1.056.956.144 1.913.215 2.865.215 6.376 0 12.477-3.174 16.114-8.543a14.514 14.514 0 0 0 7.667 3.142 2.5 2.5 0 0 0 .498-4.976c-5.274-.527-9.136-5.248-8.608-10.521a2.5 2.5 0 0 0-2.238-2.737 2.492 2.492 0 0 0-2.736 2.239 14.518 14.518 0 0 0 1.981 8.883c-3.17 5.802-9.962 8.728-16.356 7.013a19.371 19.371 0 0 1-6.468-14.427c0-3.394.876-6.68 2.542-9.594a19.338 19.338 0 0 0 14.417-4.985 2.5 2.5 0 0 0-3.359-3.703c-2.968 2.691-6.869 3.988-10.835 3.67a19.263 19.263 0 0 1-2.765-9.958c0-5.016 1.915-9.776 5.393-13.402a2.5 2.5 0 0 0 .574-2.5 19.364 19.364 0 0 1-.941-5.97c0-7.801 4.69-14.8 11.794-17.82a14.365 14.365 0 0 1 5.013 11.615 14.425 14.425 0 0 1-3.151 8.322 14.533 14.533 0 0 0-9.094 3.326 2.5 2.5 0 0 0 3.18 3.859 9.548 9.548 0 0 1 7.036-2.149 9.545 9.545 0 0 1 6.494 3.456c.494.6 1.21.911 1.931.911a2.5 2.5 0 0 0 1.929-4.089 14.51 14.51 0 0 0-6.078-4.356 19.418 19.418 0 0 0 2.748-9.043 19.342 19.342 0 0 0-6.78-15.668c2.362-8.073 9.818-13.803 18.331-13.917.324 2.1.974 4.099 1.919 5.933 2.16 4.604.355 10.157-4.185 12.567a2.499 2.499 0 0 0-1.036 3.38 2.499 2.499 0 0 0 3.38 1.037c4.114-2.183 6.745-6.068 7.514-10.33a19.68 19.68 0 0 0 3.848 2.226 2.502 2.502 0 0 0 3.289-1.296 2.5 2.5 0 0 0-1.297-3.289 14.353 14.353 0 0 1-7.116-6.679c-.064-.129-.114-.261-.182-.389l-.002-.003a14.46 14.46 0 0 1-1.323-5.038c2.365-5.647 7.785-9.279 13.935-9.279 7.413 0 13.84 5.517 14.949 12.833.008.053.018.105.029.158.095.438.144.875.144 1.301V87.98a19.29 19.29 0 0 0-15.675 3.564 19.286 19.286 0 0 0-7.479 12.84 2.5 2.5 0 1 0 4.956.671 14.315 14.315 0 0 1 5.552-9.532 14.322 14.322 0 0 1 10.666-2.815c.592.081 1.182.198 1.754.348.076.02.151.023.227.036v1.337a2.5 2.5 0 1 0 5 0v-23.26c0-.756-.081-1.525-.241-2.286-1.51-9.701-10.043-17.005-19.881-17.005-7.746 0-14.633 4.321-18.015 11.155a25.04 25.04 0 0 0-.473-.005c-11.025 0-20.709 7.506-23.539 18.039a24.39 24.39 0 0 0-15.07 22.527c0 2.063.26 4.107.774 6.098a24.236 24.236 0 0 0-5.8 15.774c0 4.351 1.144 8.564 3.32 12.285a24.245 24.245 0 0 0-3.32 12.285 24.35 24.35 0 0 0 7.454 17.536zM183.502 124.348a2.5 2.5 0 1 0-2.429-4.369 14.498 14.498 0 0 0-5.966 6.24 19.333 19.333 0 0 0-6.108-2.748 2.5 2.5 0 0 0-1.224 4.848 14.382 14.382 0 0 1 5.859 3.051 14.504 14.504 0 0 0 1.773 8.482 2.499 2.499 0 0 0 3.4.969 2.5 2.5 0 0 0 .97-3.4c-1.248-2.244-1.548-4.839-.844-7.309s2.325-4.516 4.569-5.764z"/><path class="st1" d="M145.258 171.521c4.863 0 9.623-1.833 13.292-5.288a19.427 19.427 0 0 0 5.976-11.899 2.5 2.5 0 1 0-4.967-.573 14.418 14.418 0 0 1-4.437 8.832 14.374 14.374 0 0 1-13.739 3.395 2.49 2.49 0 0 0-2.008-1.024 2.5 2.5 0 0 0-2.5 2.5v26.129c0 9.179 10.373 18.532 20.555 18.532a20.577 20.577 0 0 0 15.918-7.556 18.88 18.88 0 0 0 19.224-10.703l.223-.171c10.932-1.987 19.094-11.711 19.094-22.894a23.27 23.27 0 0 0-.227-3.229 24.372 24.372 0 0 0 7.458-17.54c0-4.351-1.144-8.565-3.32-12.285a24.245 24.245 0 0 0 3.32-12.285 24.236 24.236 0 0 0-5.8-15.774 24.39 24.39 0 0 0-14.296-28.625c-2.83-10.532-12.514-18.039-23.539-18.039-.156 0-.313.001-.473.005-3.382-6.833-10.269-11.155-18.015-11.155-9.838 0-18.371 7.305-19.881 17.005-.16.761-.241 1.529-.241 2.286v23.26a2.5 2.5 0 1 0 5 0v-1.338c.076-.013.151-.016.227-.036.572-.15 1.162-.268 1.754-.348 3.813-.519 7.603.482 10.666 2.814s5.035 5.717 5.552 9.532a2.502 2.502 0 0 0 4.956-.671 19.282 19.282 0 0 0-7.479-12.84 19.278 19.278 0 0 0-15.675-3.565V71.166c0-.426.049-.863.144-1.301.012-.052.021-.105.029-.158 1.109-7.316 7.536-12.833 14.949-12.833 6.151 0 11.571 3.632 13.936 9.279a14.46 14.46 0 0 1-1.323 5.038l-.002.003c-.068.128-.118.26-.182.389a14.353 14.353 0 0 1-7.116 6.679 2.5 2.5 0 1 0 1.992 4.585 19.651 19.651 0 0 0 3.848-2.226c.769 4.262 3.401 8.147 7.514 10.33a2.497 2.497 0 0 0 3.38-1.037 2.5 2.5 0 0 0-1.036-3.38c-4.54-2.409-6.346-7.963-4.185-12.567a19.392 19.392 0 0 0 1.919-5.933c8.513.114 15.969 5.845 18.331 13.917a19.341 19.341 0 0 0-6.78 15.667 19.407 19.407 0 0 0 2.748 9.044 14.51 14.51 0 0 0-6.078 4.356 2.5 2.5 0 1 0 3.86 3.178 9.55 9.55 0 0 1 6.494-3.456 9.556 9.556 0 0 1 7.036 2.149 2.5 2.5 0 1 0 3.18-3.859 14.524 14.524 0 0 0-9.094-3.327 14.411 14.411 0 0 1-3.151-8.322 14.367 14.367 0 0 1 5.013-11.615c7.104 3.02 11.794 10.019 11.794 17.82 0 2.03-.316 4.038-.941 5.97a2.501 2.501 0 0 0 .574 2.5 19.276 19.276 0 0 1 5.393 13.402c0 3.537-.959 6.954-2.766 9.958-3.961.319-7.868-.979-10.835-3.67a2.5 2.5 0 0 0-3.359 3.703 19.333 19.333 0 0 0 14.417 4.985 19.268 19.268 0 0 1 2.542 9.594 19.37 19.37 0 0 1-6.468 14.427c-6.396 1.716-13.186-1.211-16.356-7.013a14.518 14.518 0 0 0 1.981-8.883 2.5 2.5 0 1 0-4.974.498c.527 5.274-3.334 9.994-8.608 10.521a2.5 2.5 0 0 0 .498 4.976 14.526 14.526 0 0 0 7.667-3.142c3.637 5.37 9.737 8.543 16.114 8.543.951 0 1.909-.071 2.865-.215.021.353.051.706.051 1.056 0 8.592-6.141 16.071-14.444 17.849a19.477 19.477 0 0 0-3.036-5.888 19.418 19.418 0 0 0-11.193-7.211 2.5 2.5 0 0 0-1.099 4.878c1.031.232 2.022.59 2.968 1.036a14.42 14.42 0 0 1-5.788 5.843c-6.652 3.63-14.928 1.44-18.984-4.821a9.621 9.621 0 0 1 1.245-1.03 9.553 9.553 0 0 1 7.195-1.532 2.5 2.5 0 0 0 .91-4.917 14.526 14.526 0 0 0-10.939 2.33 14.518 14.518 0 0 0-6.087 9.382 2.5 2.5 0 0 0 4.916.909c.023-.122.058-.24.085-.36 3.737 4.375 9.196 6.795 14.792 6.795 3.138 0 6.318-.761 9.262-2.366a19.428 19.428 0 0 0 7.495-7.326c.439.444.859.908 1.239 1.41a14.44 14.44 0 0 1 2.63 5.918 13.879 13.879 0 0 1-15.308 7.719 2.489 2.489 0 0 0-2.543 1.023 15.576 15.576 0 0 1-12.773 6.683c-7.414 0-15.555-7.082-15.555-13.532v-22.376c1.121.204 2.252.309 3.379.309z"/><path class="st1" d="M98.329 129.141v5.719a5.022 5.022 0 0 0 3.766 4.862l4.478 1.154-2.352 3.984a5.023 5.023 0 0 0 .776 6.099l4.044 4.044a5.024 5.024 0 0 0 6.102.775l3.981-2.35 1.154 4.479a5.022 5.022 0 0 0 4.862 3.764h5.719a5.026 5.026 0 0 0 4.863-3.767l1.153-4.477 3.982 2.351a5.023 5.023 0 0 0 6.101-.776l4.044-4.044a5.022 5.022 0 0 0 .775-6.101l-2.351-3.981 4.48-1.155a5.022 5.022 0 0 0 3.763-4.861v-5.719a5.023 5.023 0 0 0-3.766-4.863l-4.478-1.154 2.352-3.984a5.023 5.023 0 0 0-.776-6.099l-4.044-4.044a5.023 5.023 0 0 0-6.102-.775l-3.981 2.35-1.154-4.481a5.025 5.025 0 0 0-4.862-3.762h-5.719a5.022 5.022 0 0 0-4.862 3.764l-.001.003-1.153 4.477-3.983-2.351a5.026 5.026 0 0 0-6.1.777l-4.045 4.044a5.024 5.024 0 0 0-.774 6.101l2.351 3.981-4.479 1.154a5.021 5.021 0 0 0-3.764 4.862zm5.014-.021 7.695-1.983a2.5 2.5 0 0 0 1.53-3.691l-4.035-6.869 4.069-4.049 6.844 4.039a2.5 2.5 0 0 0 3.692-1.529l1.982-7.695h5.762l1.982 7.695a2.5 2.5 0 0 0 3.692 1.529l6.869-4.034 4.048 4.069-4.039 6.844a2.499 2.499 0 0 0 1.53 3.691l7.709 2.004-.014 5.74-7.695 1.983a2.5 2.5 0 0 0-1.53 3.691l4.035 6.869-4.069 4.049-6.844-4.039a2.498 2.498 0 0 0-3.692 1.529l-2.004 7.709-5.74-.014-1.982-7.695a2.5 2.5 0 0 0-3.692-1.529l-6.869 4.034-4.048-4.069 4.039-6.844a2.499 2.499 0 0 0-1.53-3.691l-7.709-2.003.014-5.741z"/><path class="st1" d="M139.75 132c0-6.479-5.271-11.75-11.75-11.75s-11.75 5.271-11.75 11.75 5.271 11.75 11.75 11.75 11.75-5.271 11.75-11.75zm-18.5 0c0-3.722 3.028-6.75 6.75-6.75s6.75 3.028 6.75 6.75-3.028 6.75-6.75 6.75-6.75-3.028-6.75-6.75z"/><g><path class="st8" d="M91.698 78.849a2.502 2.502 0 0 0 3.289-1.296 2.5 2.5 0 0 0-1.297-3.289c-5.071-2.203-8.389-7.004-8.658-12.53a2.489 2.489 0 0 0-2.619-2.375 2.5 2.5 0 0 0-2.375 2.619c.363 7.439 4.831 13.904 11.66 16.871zM79.311 187.698a19.297 19.297 0 0 0 9.262 2.366c6.881 0 13.558-3.662 17.077-10.116a2.5 2.5 0 0 0-4.389-2.394c-3.807 6.978-12.582 9.557-19.556 5.754a14.42 14.42 0 0 1-6.529-7.42 2.5 2.5 0 1 0-4.66 1.813 19.431 19.431 0 0 0 8.795 9.997z"/><path class="st8" d="M77.992 82.536a2.499 2.499 0 0 0-1.036 3.38 2.499 2.499 0 0 0 3.38 1.037c7.117-3.777 9.834-12.641 6.057-19.758a2.499 2.499 0 1 0-4.416 2.343c2.484 4.683.697 10.513-3.985 12.998zM59.89 102.5a2.501 2.501 0 0 0 3.666 3.4 19.42 19.42 0 0 0 5.151-12.278 19.359 19.359 0 0 0-8.06-16.683 2.5 2.5 0 0 0-2.922 4.058 14.38 14.38 0 0 1 5.987 12.39 14.415 14.415 0 0 1-3.822 9.113zM52.028 165.96c7.364 0 14.369-4.229 17.624-11.192a2.499 2.499 0 1 0-4.529-2.117c-3.047 6.515-10.511 9.807-17.356 7.655a2.5 2.5 0 1 0-1.498 4.77c1.905.599 3.843.884 5.759.884zM81.614 128.064a14.393 14.393 0 0 1 6.612-3.745 2.5 2.5 0 0 0-1.224-4.848 19.409 19.409 0 0 0-8.911 5.045 2.5 2.5 0 0 0 3.523 3.548zM110.742 167.521c2.141 0 4.302-.355 6.398-1.083a2.5 2.5 0 0 0-1.641-4.724 14.38 14.38 0 0 1-14.622-3.122 14.415 14.415 0 0 1-4.437-8.832 2.5 2.5 0 1 0-4.967.573 19.421 19.421 0 0 0 5.976 11.899 19.364 19.364 0 0 0 13.293 5.289zM65.339 190.471a2.502 2.502 0 0 0 2.47-2.131 14.416 14.416 0 0 1 11.077-11.911 2.501 2.501 0 0 0-1.099-4.878A19.424 19.424 0 0 0 62.865 187.6a2.5 2.5 0 0 0 2.474 2.871zM45.818 136.49c4.789 0 9.418-1.766 13.022-5.036a2.5 2.5 0 0 0-3.359-3.703 14.378 14.378 0 0 1-11.796 3.583 2.5 2.5 0 0 0-.731 4.946c.958.14 1.914.21 2.864.21zM93.452 103.217a2.502 2.502 0 0 0 2.475-2.165 14.315 14.315 0 0 1 5.552-9.532 14.322 14.322 0 0 1 10.666-2.815c.592.081 1.182.198 1.754.348a2.5 2.5 0 0 0 1.272-4.836 19.836 19.836 0 0 0-2.354-.467 19.29 19.29 0 0 0-14.366 3.791 19.286 19.286 0 0 0-7.479 12.84 2.5 2.5 0 0 0 2.48 2.836z"/><path class="st8" d="M54.647 108.894a9.552 9.552 0 0 1 7.036-2.149 9.545 9.545 0 0 1 6.494 3.456c.494.6 1.21.911 1.931.911a2.5 2.5 0 0 0 1.929-4.089 14.516 14.516 0 0 0-9.873-5.254 14.55 14.55 0 0 0-10.696 3.267 2.5 2.5 0 0 0 3.179 3.858zM77.195 136.821a2.5 2.5 0 0 0 3.4-.969c1.897-3.411 2.354-7.357 1.283-11.11s-3.538-6.866-6.95-8.763a2.498 2.498 0 1 0-2.429 4.369c2.244 1.249 3.867 3.295 4.571 5.765s.404 5.064-.844 7.309a2.499 2.499 0 0 0 .969 3.399zM65.46 142.325a2.493 2.493 0 0 0-2.736 2.239c-.803 8.018 5.067 15.193 13.085 15.995a2.5 2.5 0 0 0 .498-4.976c-5.274-.527-9.136-5.248-8.608-10.521a2.501 2.501 0 0 0-2.239-2.737zM92.249 175.925a9.552 9.552 0 0 1 7.195 1.532 9.556 9.556 0 0 1 4.005 6.172 2.5 2.5 0 1 0 4.916-.909 14.52 14.52 0 0 0-6.087-9.382 14.524 14.524 0 0 0-10.939-2.33 2.5 2.5 0 0 0 .91 4.917z"/><path class="st8" d="M44.339 163.572a23.424 23.424 0 0 0-.227 3.229c0 11.183 8.162 20.907 19.094 22.894l.223.171a18.88 18.88 0 0 0 19.224 10.703 20.576 20.576 0 0 0 15.918 7.556c10.182 0 20.555-9.353 20.555-18.532v-26.129a2.5 2.5 0 1 0-5 0v26.129c0 6.45-8.141 13.532-15.555 13.532-5.085 0-9.86-2.498-12.773-6.683a2.49 2.49 0 0 0-2.543-1.023c-.898.18-1.82.271-2.738.271a13.885 13.885 0 0 1-12.775-8.425 2.511 2.511 0 0 0-.82-1.032 49.12 49.12 0 0 1-1.143-.871 2.499 2.499 0 0 0-1.163-.5c-8.838-1.341-15.502-9.105-15.502-18.061 0-1.146.111-2.311.332-3.461a2.49 2.49 0 0 0-.081-1.253l-.119-.353a2.502 2.502 0 0 0-.735-1.119 19.378 19.378 0 0 1-6.628-14.583c0-3.902 1.156-7.664 3.343-10.879a2.5 2.5 0 0 0 0-2.812 19.265 19.265 0 0 1-3.343-10.879c0-5.016 1.915-9.776 5.393-13.402a2.5 2.5 0 0 0 .574-2.5 19.385 19.385 0 0 1 12.075-24.269 2.502 2.502 0 0 0 1.628-1.854c1.854-8.931 9.83-15.413 18.966-15.413.583 0 1.197.03 1.825.089a2.483 2.483 0 0 0 2.564-1.584c2.276-5.865 7.81-9.654 14.098-9.654 7.413 0 13.84 5.517 14.949 12.833.008.053.018.105.029.158.095.438.144.875.144 1.301v23.26a2.5 2.5 0 1 0 5 0v-23.26c0-.756-.081-1.525-.241-2.286-1.51-9.701-10.043-17.005-19.881-17.005-7.746 0-14.633 4.321-18.015 11.155a25.04 25.04 0 0 0-.473-.005c-11.025 0-20.709 7.506-23.539 18.039a24.39 24.39 0 0 0-15.07 22.527c0 2.063.26 4.107.774 6.098a24.236 24.236 0 0 0-5.8 15.774c0 4.351 1.144 8.564 3.32 12.285a24.245 24.245 0 0 0-3.32 12.285 24.361 24.361 0 0 0 7.456 17.538z"/><g><path class="st8" d="M163.307 79.056c.333 0 .671-.066.995-.208 6.829-2.967 11.297-9.432 11.66-16.873a2.5 2.5 0 0 0-2.375-2.619 2.488 2.488 0 0 0-2.619 2.375c-.27 5.525-3.587 10.327-8.658 12.53a2.5 2.5 0 0 0-1.297 3.289 2.499 2.499 0 0 0 2.294 1.506zM167.428 190.064c3.138 0 6.318-.761 9.262-2.366a19.433 19.433 0 0 0 8.795-9.996 2.5 2.5 0 1 0-4.66-1.813 14.424 14.424 0 0 1-6.529 7.42c-6.976 3.805-15.749 1.225-19.556-5.754a2.5 2.5 0 0 0-4.389 2.394c3.519 6.454 10.195 10.115 17.077 10.115z"/><path class="st8" d="M172.987 66.158a2.498 2.498 0 0 0-3.38 1.037c-3.777 7.117-1.061 15.98 6.057 19.758a2.497 2.497 0 0 0 3.38-1.037 2.5 2.5 0 0 0-1.036-3.38c-4.682-2.484-6.469-8.315-3.984-12.997a2.501 2.501 0 0 0-1.037-3.381zM198.274 80.996a2.5 2.5 0 0 0-2.922-4.058 19.363 19.363 0 0 0-8.06 16.683 19.428 19.428 0 0 0 5.151 12.279c.493.531 1.162.8 1.834.8a2.501 2.501 0 0 0 1.832-4.2 14.415 14.415 0 0 1-3.823-9.114 14.387 14.387 0 0 1 5.988-12.39zM203.972 165.96a19.21 19.21 0 0 0 5.76-.884 2.5 2.5 0 0 0-1.498-4.77c-6.85 2.151-14.31-1.14-17.356-7.655a2.5 2.5 0 0 0-4.529 2.117c3.255 6.964 10.257 11.192 17.623 11.192zM174.386 128.064a2.494 2.494 0 0 0 1.762.726 2.499 2.499 0 0 0 1.761-4.274 19.409 19.409 0 0 0-8.911-5.045 2.5 2.5 0 0 0-1.224 4.848 14.393 14.393 0 0 1 6.612 3.745zM145.258 167.521c4.863 0 9.623-1.833 13.292-5.288a19.427 19.427 0 0 0 5.976-11.899 2.5 2.5 0 0 0-2.196-2.77 2.493 2.493 0 0 0-2.771 2.197 14.418 14.418 0 0 1-4.437 8.832 14.38 14.38 0 0 1-14.622 3.122 2.5 2.5 0 0 0-1.641 4.724 19.526 19.526 0 0 0 6.399 1.082zM185.424 181.782a14.436 14.436 0 0 1 2.768 6.558 2.502 2.502 0 0 0 4.946-.739 19.436 19.436 0 0 0-3.729-8.838 19.418 19.418 0 0 0-11.193-7.211 2.494 2.494 0 0 0-2.988 1.889 2.5 2.5 0 0 0 1.889 2.989 14.41 14.41 0 0 1 8.307 5.352zM213.045 136.279a2.5 2.5 0 1 0-.731-4.946 14.367 14.367 0 0 1-11.796-3.583 2.5 2.5 0 0 0-3.359 3.703 19.333 19.333 0 0 0 13.022 5.036c.951.001 1.908-.069 2.864-.21zM142.102 89.053c.572-.15 1.162-.268 1.754-.348 3.813-.519 7.603.482 10.666 2.814s5.035 5.717 5.552 9.532a2.502 2.502 0 0 0 4.956-.671 19.282 19.282 0 0 0-7.479-12.84 19.286 19.286 0 0 0-14.366-3.791c-.793.107-1.585.265-2.354.466a2.5 2.5 0 0 0-1.782 3.053 2.503 2.503 0 0 0 3.053 1.785z"/><path class="st8" d="M187.822 110.2a9.55 9.55 0 0 1 6.494-3.456 9.551 9.551 0 0 1 7.036 2.149 2.5 2.5 0 1 0 3.18-3.859 14.548 14.548 0 0 0-10.696-3.267 14.512 14.512 0 0 0-9.873 5.254 2.5 2.5 0 1 0 3.859 3.179zM183.502 120.348a2.5 2.5 0 1 0-2.429-4.369c-3.412 1.897-5.88 5.009-6.95 8.763s-.614 7.699 1.283 11.11a2.499 2.499 0 0 0 3.4.969 2.5 2.5 0 0 0 .97-3.4c-1.248-2.244-1.548-4.839-.844-7.309s2.326-4.516 4.57-5.764zM179.693 155.583a2.5 2.5 0 0 0 .498 4.976c8.018-.802 13.888-7.978 13.085-15.995a2.5 2.5 0 1 0-4.974.498c.527 5.274-3.334 9.994-8.609 10.521zM150.096 185.675a2.5 2.5 0 0 0 2.455-2.046 9.556 9.556 0 0 1 4.005-6.172 9.553 9.553 0 0 1 7.195-1.532 2.5 2.5 0 0 0 .91-4.917 14.522 14.522 0 0 0-10.939 2.33 14.518 14.518 0 0 0-6.087 9.382 2.5 2.5 0 0 0 2.461 2.955z"/><path class="st8" d="M139.375 160.964a2.5 2.5 0 0 0-2.5 2.5v26.129c0 9.179 10.373 18.532 20.555 18.532a20.577 20.577 0 0 0 15.918-7.556 18.88 18.88 0 0 0 19.224-10.703l.223-.171c10.932-1.987 19.094-11.711 19.094-22.894a23.27 23.27 0 0 0-.227-3.229 24.372 24.372 0 0 0 7.458-17.54c0-4.351-1.144-8.565-3.32-12.285a24.245 24.245 0 0 0 3.32-12.285 24.236 24.236 0 0 0-5.8-15.774 24.39 24.39 0 0 0-14.296-28.625c-2.83-10.532-12.514-18.039-23.539-18.039-.156 0-.313.001-.473.005-3.382-6.833-10.269-11.155-18.015-11.155-9.838 0-18.371 7.305-19.881 17.005-.16.761-.241 1.529-.241 2.286v23.26a2.5 2.5 0 1 0 5 0v-23.26c0-.426.049-.863.144-1.301.012-.052.021-.105.029-.158 1.109-7.316 7.536-12.833 14.949-12.833 6.288 0 11.821 3.79 14.098 9.654a2.482 2.482 0 0 0 2.564 1.584 19.617 19.617 0 0 1 1.825-.089c9.136 0 17.112 6.482 18.966 15.413a2.502 2.502 0 0 0 1.628 1.854 19.386 19.386 0 0 1 12.075 24.269 2.501 2.501 0 0 0 .574 2.5 19.276 19.276 0 0 1 5.393 13.402c0 3.902-1.156 7.664-3.343 10.879a2.5 2.5 0 0 0 0 2.812 19.265 19.265 0 0 1 3.343 10.879 19.38 19.38 0 0 1-6.628 14.583 2.485 2.485 0 0 0-.735 1.119l-.119.353a2.49 2.49 0 0 0-.081 1.253 18.39 18.39 0 0 1 .332 3.461c0 8.955-6.664 16.72-15.502 18.061a2.51 2.51 0 0 0-1.163.5 49.12 49.12 0 0 1-1.143.871c-.36.264-.644.621-.82 1.032a13.885 13.885 0 0 1-12.775 8.425c-.918 0-1.84-.091-2.738-.271a2.49 2.49 0 0 0-2.543 1.023 15.576 15.576 0 0 1-12.773 6.683c-7.414 0-15.555-7.082-15.555-13.532v-26.129a2.502 2.502 0 0 0-2.502-2.498z"/></g><g><path class="st9" d="M90.038 121.283a2.498 2.498 0 0 0-3.036-1.812 19.353 19.353 0 0 0-6.108 2.748 14.498 14.498 0 0 0-5.966-6.24 2.5 2.5 0 0 0-2.43 4.369c2.244 1.249 3.867 3.295 4.571 5.765s.404 5.064-.844 7.309a2.5 2.5 0 0 0 4.37 2.431 14.506 14.506 0 0 0 1.773-8.482 14.388 14.388 0 0 1 5.859-3.051 2.501 2.501 0 0 0 1.811-3.037zm-2.179 1.582a15.956 15.956 0 0 0-6.47 3.368 1.5 1.5 0 0 0-.514 1.281 13.01 13.01 0 0 1-1.591 7.609 1.002 1.002 0 0 1-1.36.387.995.995 0 0 1-.387-1.359 11.039 11.039 0 0 0 .975-8.449 11.042 11.042 0 0 0-5.285-6.664.995.995 0 0 1-.387-1.359 1.002 1.002 0 0 1 1.359-.387 13.007 13.007 0 0 1 5.352 5.597 1.502 1.502 0 0 0 2.184.574 17.792 17.792 0 0 1 5.633-2.535.998.998 0 1 1 .491 1.937z"/><path class="st9" d="M44.339 163.572a23.424 23.424 0 0 0-.227 3.229c0 11.183 8.162 20.907 19.094 22.894l.223.171a18.88 18.88 0 0 0 19.224 10.703 20.576 20.576 0 0 0 15.918 7.556c10.182 0 20.555-9.353 20.555-18.532v-26.129a2.5 2.5 0 0 0-2.5-2.5c-.826 0-1.553.406-2.008 1.023a14.469 14.469 0 0 1-3.873.529 14.366 14.366 0 0 1-9.866-3.924 14.415 14.415 0 0 1-4.437-8.832 2.496 2.496 0 0 0-2.77-2.197 2.5 2.5 0 0 0-2.196 2.77 19.421 19.421 0 0 0 5.976 11.899 19.364 19.364 0 0 0 13.292 5.288c1.126 0 2.258-.105 3.383-.304v22.376c0 6.45-8.141 13.532-15.555 13.532-5.085 0-9.86-2.498-12.773-6.683a2.492 2.492 0 0 0-2.543-1.023 13.88 13.88 0 0 1-15.308-7.719 14.434 14.434 0 0 1 2.63-5.918c.38-.502.801-.966 1.239-1.41a19.441 19.441 0 0 0 7.495 7.326 19.297 19.297 0 0 0 9.262 2.366c5.595 0 11.054-2.421 14.792-6.796.027.121.063.239.085.361a2.5 2.5 0 1 0 4.916-.909 14.52 14.52 0 0 0-6.087-9.382 14.516 14.516 0 0 0-10.939-2.329 2.5 2.5 0 0 0 .91 4.917 9.546 9.546 0 0 1 7.195 1.532c.449.309.86.658 1.245 1.03-2.726 4.207-7.358 6.575-12.121 6.575-2.325 0-4.681-.564-6.862-1.753a14.42 14.42 0 0 1-5.788-5.843 14.283 14.283 0 0 1 2.968-1.036 2.501 2.501 0 0 0-1.1-4.878 19.424 19.424 0 0 0-11.193 7.211 19.477 19.477 0 0 0-3.036 5.888c-8.303-1.778-14.444-9.258-14.444-17.849 0-.35.03-.704.051-1.056.956.144 1.913.215 2.865.215 6.376 0 12.477-3.174 16.114-8.543a14.514 14.514 0 0 0 7.667 3.142 2.5 2.5 0 0 0 .498-4.976c-5.274-.527-9.136-5.248-8.608-10.521a2.5 2.5 0 1 0-4.974-.498 14.518 14.518 0 0 0 1.981 8.883c-2.562 4.688-7.491 7.5-12.661 7.5-1.227 0-2.468-.158-3.694-.487a19.371 19.371 0 0 1-6.468-14.427c0-3.394.876-6.68 2.542-9.594a19.338 19.338 0 0 0 14.417-4.985 2.5 2.5 0 1 0-3.36-3.703 14.324 14.324 0 0 1-9.657 3.718c-.392 0-.785-.016-1.179-.047a19.263 19.263 0 0 1-2.765-9.958c0-5.016 1.915-9.776 5.393-13.402a2.5 2.5 0 0 0 .574-2.5 19.364 19.364 0 0 1-.941-5.97c0-7.801 4.69-14.8 11.794-17.82a14.365 14.365 0 0 1 5.013 11.615 14.425 14.425 0 0 1-3.151 8.322 14.533 14.533 0 0 0-9.094 3.326 2.5 2.5 0 0 0 3.179 3.86 9.535 9.535 0 0 1 6.098-2.194c.311 0 .624.015.938.045a9.545 9.545 0 0 1 6.494 3.456c.494.6 1.21.911 1.931.911a2.5 2.5 0 0 0 1.929-4.089 14.51 14.51 0 0 0-6.078-4.356 19.418 19.418 0 0 0 2.748-9.043 19.342 19.342 0 0 0-6.78-15.668c2.362-8.073 9.818-13.803 18.331-13.917.324 2.1.974 4.099 1.919 5.933 2.16 4.604.355 10.157-4.185 12.567a2.499 2.499 0 0 0-1.036 3.38 2.499 2.499 0 0 0 3.38 1.037c4.114-2.183 6.745-6.068 7.514-10.33a19.68 19.68 0 0 0 3.848 2.226 2.502 2.502 0 0 0 3.289-1.296 2.5 2.5 0 0 0-1.297-3.289 14.353 14.353 0 0 1-7.116-6.679c-.064-.129-.114-.261-.182-.389l-.002-.003a14.46 14.46 0 0 1-1.323-5.038c2.365-5.647 7.785-9.279 13.935-9.279 7.413 0 13.84 5.517 14.949 12.833.008.053.018.105.029.158.095.438.144.875.144 1.301v16.811c-.434-.089-.87-.167-1.309-.227a19.667 19.667 0 0 0-2.645-.179 19.27 19.27 0 0 0-11.721 3.97 19.286 19.286 0 0 0-7.479 12.84 2.5 2.5 0 1 0 4.956.671 14.315 14.315 0 0 1 5.552-9.532 14.31 14.31 0 0 1 8.702-2.948 14.618 14.618 0 0 1 3.718.481c.076.02.151.023.227.036v1.338a2.5 2.5 0 1 0 5 0v-23.26c0-.756-.081-1.525-.241-2.286-1.51-9.701-10.043-17.005-19.881-17.005-7.746 0-14.633 4.321-18.015 11.155a25.04 25.04 0 0 0-.473-.005c-11.025 0-20.709 7.506-23.539 18.039a24.39 24.39 0 0 0-15.07 22.527c0 2.063.26 4.107.774 6.098a24.236 24.236 0 0 0-5.8 15.774c0 4.351 1.144 8.564 3.32 12.285a24.245 24.245 0 0 0-3.32 12.285 24.352 24.352 0 0 0 7.455 17.531zm-2.843-30.582a22.842 22.842 0 0 1-3.115-11.527c0-5.423 1.933-10.68 5.442-14.802a1.5 1.5 0 0 0 .31-1.348 22.896 22.896 0 0 1-.727-5.723 22.795 22.795 0 0 1 14.142-21.141c.431-.178.755-.547.876-.997 2.678-9.967 11.762-16.928 22.09-16.928.146 0 .292.001.44.005h.032a1.5 1.5 0 0 0 1.344-.835c3.15-6.366 9.538-10.32 16.67-10.32 9.093 0 17.003 6.765 18.399 15.736l.014.078a9.6 9.6 0 0 1 .209 1.977v23.26a1.001 1.001 0 0 1-2 0v-1.338c0-.733-.529-1.358-1.252-1.479a3.115 3.115 0 0 0-.143-.02 16.224 16.224 0 0 0-4.049-.517 15.747 15.747 0 0 0-9.611 3.254 15.812 15.812 0 0 0-6.13 10.524 1.002 1.002 0 0 1-1.787.472.992.992 0 0 1-.195-.74 17.795 17.795 0 0 1 6.901-11.848c3.148-2.397 6.887-3.664 10.812-3.663.811 0 1.634.056 2.443.165.376.051.771.12 1.209.209a1.501 1.501 0 0 0 1.802-1.469V67.166c0-.53-.06-1.074-.177-1.618l-.012-.065c-1.22-8.043-8.284-14.108-16.432-14.108a16.57 16.57 0 0 0-15.319 10.199c-.092.219-.13.458-.112.695a15.95 15.95 0 0 0 1.471 5.58l.032.061c.019.037.035.076.052.114.033.075.067.149.11.237 1.661 3.278 4.452 5.897 7.856 7.377a1.002 1.002 0 0 1-.399 1.918.992.992 0 0 1-.397-.083 18.195 18.195 0 0 1-3.555-2.057 1.495 1.495 0 0 0-1.444-.187 1.5 1.5 0 0 0-.923 1.128c-.722 4.002-3.18 7.381-6.741 9.271a1 1 0 0 1-.938-1.766c5.234-2.777 7.36-9.159 4.84-14.529l-.025-.05a17.854 17.854 0 0 1-1.77-5.474 1.5 1.5 0 0 0-1.482-1.271h-.02c-9.081.122-17.203 6.288-19.751 14.996a1.5 1.5 0 0 0 .465 1.562c4.24 3.622 6.52 8.891 6.256 14.457a17.966 17.966 0 0 1-2.537 8.344 1.497 1.497 0 0 0 .756 2.172 13.082 13.082 0 0 1 5.452 3.908 1.001 1.001 0 0 1-1.544 1.272 11.035 11.035 0 0 0-7.51-3.995 11.498 11.498 0 0 0-1.08-.052c-2.599 0-5.038.877-7.052 2.536a.995.995 0 0 1-1.408-.137 1 1 0 0 1 .136-1.407 12.954 12.954 0 0 1 8.159-2.984 1.499 1.499 0 0 0 1.152-.563 16.024 16.024 0 0 0 3.479-9.189 15.81 15.81 0 0 0-5.534-12.824 1.499 1.499 0 0 0-1.564-.242 20.834 20.834 0 0 0-12.707 19.2c0 2.187.341 4.351 1.014 6.432a1 1 0 0 1-.23 1 20.769 20.769 0 0 0-5.81 14.44c0 3.778 1.03 7.489 2.98 10.731.249.415.683.684 1.165.722.431.035.868.052 1.299.052a15.84 15.84 0 0 0 10.665-4.107.995.995 0 0 1 .67-.259.99.99 0 0 1 .742.328c.179.198.271.453.258.72s-.129.513-.327.692a17.85 17.85 0 0 1-13.303 4.6c-.036-.002-.071-.004-.107-.004a1.5 1.5 0 0 0-1.302.756 20.853 20.853 0 0 0-2.74 10.338c0 5.915 2.54 11.581 6.968 15.545.175.157.385.27.612.331 1.332.357 2.705.539 4.083.539a15.917 15.917 0 0 0 13.978-8.281 1.501 1.501 0 0 0-.026-1.485 12.988 12.988 0 0 1-1.779-7.968.995.995 0 0 1 1.095-.896.997.997 0 0 1 .895 1.095 11.04 11.04 0 0 0 2.46 8.14 11.03 11.03 0 0 0 7.491 4.023 1 1 0 0 1-.2 1.99 13.03 13.03 0 0 1-6.877-2.819 1.501 1.501 0 0 0-2.181.329 17.94 17.94 0 0 1-17.514 7.687 1.5 1.5 0 0 0-1.721 1.395l-.013.242c-.02.301-.038.602-.038.901 0 9.253 6.573 17.377 15.63 19.316a1.5 1.5 0 0 0 1.744-1.015 17.911 17.911 0 0 1 2.801-5.435 17.915 17.915 0 0 1 10.324-6.653.994.994 0 0 1 1.199.755 1.003 1.003 0 0 1-.755 1.196c-1.089.246-2.192.63-3.279 1.144a1.5 1.5 0 0 0-.681 2.066 15.873 15.873 0 0 0 6.391 6.45 15.882 15.882 0 0 0 7.581 1.937c5.434 0 10.436-2.714 13.38-7.259a1.5 1.5 0 0 0-.216-1.894 11.131 11.131 0 0 0-1.438-1.188 11.04 11.04 0 0 0-8.314-1.771 1 1 0 1 1-.368-1.966 13.013 13.013 0 0 1 9.817 2.09 13.03 13.03 0 0 1 5.462 8.419 1.001 1.001 0 0 1-.986 1.182.998.998 0 0 1-.98-.819 4.646 4.646 0 0 0-.072-.315l-.025-.101a1.5 1.5 0 0 0-2.604-.646 17.919 17.919 0 0 1-13.651 6.27c-2.97 0-5.924-.755-8.544-2.183a17.914 17.914 0 0 1-6.915-6.761 1.497 1.497 0 0 0-2.365-.302 15.902 15.902 0 0 0-1.368 1.558 15.99 15.99 0 0 0-2.906 6.534c-.062.314-.022.639.114.928 2.528 5.377 7.994 8.852 13.927 8.852 1.016 0 2.037-.101 3.037-.301a.995.995 0 0 1 1.013.41 17.079 17.079 0 0 0 14.005 7.326c8.288 0 17.055-7.727 17.055-15.032v-22.376a1.498 1.498 0 0 0-1.761-1.477 18.025 18.025 0 0 1-3.122.281 17.832 17.832 0 0 1-12.264-4.88 17.921 17.921 0 0 1-5.514-10.979 1.001 1.001 0 0 1 1.987-.229 15.912 15.912 0 0 0 4.898 9.751 15.838 15.838 0 0 0 10.894 4.332c1.441 0 2.879-.197 4.274-.584.323-.09.607-.285.806-.555a.989.989 0 0 1 .801-.413c.551 0 1 .448 1 1v26.129c0 8.277-9.794 17.032-19.055 17.032a18.994 18.994 0 0 1-14.757-7.005 1.5 1.5 0 0 0-1.331-.541c-.651.074-1.313.112-1.967.112-6.696 0-12.871-3.911-15.731-9.965a1.496 1.496 0 0 0-.446-.552l-.218-.167a1.49 1.49 0 0 0-.647-.287c-10.183-1.851-17.862-11.059-17.862-21.418 0-.998.071-2.014.212-3.021a1.502 1.502 0 0 0-.444-1.287c-4.448-4.291-6.999-10.29-6.999-16.46 0-4.059 1.077-8.045 3.115-11.528a1.496 1.496 0 0 0 .002-1.516zM183.502 120.348a2.5 2.5 0 1 0-2.43-4.369 14.498 14.498 0 0 0-5.966 6.24 19.333 19.333 0 0 0-6.108-2.748 2.504 2.504 0 0 0-3.036 1.812 2.5 2.5 0 0 0 1.812 3.036 14.382 14.382 0 0 1 5.859 3.051 14.504 14.504 0 0 0 1.773 8.482 2.499 2.499 0 0 0 3.4.969 2.5 2.5 0 0 0 .97-3.4c-1.248-2.244-1.548-4.839-.844-7.309s2.326-4.516 4.57-5.764zm-5.038 13.802c.13.233.161.504.088.76s-.242.47-.477.6a1.003 1.003 0 0 1-1.359-.388 13.009 13.009 0 0 1-1.591-7.608 1.5 1.5 0 0 0-.514-1.281 15.962 15.962 0 0 0-6.47-3.368.989.989 0 0 1-.613-.457 1 1 0 0 1 1.104-1.481 17.787 17.787 0 0 1 5.634 2.535 1.498 1.498 0 0 0 2.184-.574 13.011 13.011 0 0 1 5.353-5.598 1.003 1.003 0 0 1 1.447 1.148.995.995 0 0 1-.476.6 11.042 11.042 0 0 0-5.285 6.664 11.033 11.033 0 0 0 .975 8.448z"/><path class="st9" d="M145.258 167.521c4.863 0 9.623-1.833 13.292-5.288a19.427 19.427 0 0 0 5.976-11.899 2.5 2.5 0 0 0-2.492-2.787 2.493 2.493 0 0 0-2.475 2.214 14.418 14.418 0 0 1-4.437 8.832 14.37 14.37 0 0 1-13.738 3.395 2.49 2.49 0 0 0-2.008-1.024 2.5 2.5 0 0 0-2.5 2.5v26.129c0 9.179 10.373 18.532 20.555 18.532a20.577 20.577 0 0 0 15.918-7.556 18.88 18.88 0 0 0 19.224-10.703l.223-.171c10.932-1.987 19.094-11.711 19.094-22.894a23.27 23.27 0 0 0-.227-3.229 24.372 24.372 0 0 0 7.458-17.54c0-4.351-1.144-8.565-3.32-12.285a24.245 24.245 0 0 0 3.32-12.285 24.236 24.236 0 0 0-5.8-15.774 24.39 24.39 0 0 0-14.296-28.625c-2.83-10.532-12.514-18.039-23.539-18.039-.156 0-.313.001-.473.005-3.382-6.833-10.269-11.155-18.015-11.155-9.838 0-18.371 7.305-19.881 17.005-.16.761-.241 1.529-.241 2.286v23.26a2.5 2.5 0 1 0 5 0v-1.338c.076-.013.151-.016.227-.036a14.704 14.704 0 0 1 3.722-.482c3.131 0 6.163 1.019 8.698 2.948a14.319 14.319 0 0 1 5.552 9.532 2.502 2.502 0 0 0 4.956-.671 19.282 19.282 0 0 0-7.479-12.84 19.27 19.27 0 0 0-11.718-3.97c-.879 0-1.762.059-2.648.179-.438.059-.875.137-1.309.226V67.166c0-.426.049-.863.144-1.301.012-.052.021-.105.029-.158 1.109-7.316 7.536-12.833 14.949-12.833 6.151 0 11.571 3.632 13.936 9.279a14.46 14.46 0 0 1-1.323 5.038l-.002.003c-.068.128-.118.26-.182.389a14.353 14.353 0 0 1-7.116 6.679 2.5 2.5 0 1 0 1.992 4.585 19.651 19.651 0 0 0 3.848-2.226c.769 4.262 3.401 8.147 7.514 10.33a2.497 2.497 0 0 0 3.38-1.037 2.5 2.5 0 0 0-1.036-3.38c-4.54-2.409-6.346-7.963-4.185-12.567a19.392 19.392 0 0 0 1.919-5.933c8.513.114 15.969 5.845 18.331 13.917a19.341 19.341 0 0 0-6.78 15.667 19.407 19.407 0 0 0 2.748 9.044 14.51 14.51 0 0 0-6.078 4.356 2.5 2.5 0 1 0 3.86 3.178 9.55 9.55 0 0 1 6.494-3.456c.314-.03.627-.045.939-.045 2.225 0 4.359.761 6.098 2.194.465.383 1.029.57 1.588.57a2.5 2.5 0 0 0 1.591-4.429 14.524 14.524 0 0 0-9.094-3.327 14.411 14.411 0 0 1-3.151-8.322 14.367 14.367 0 0 1 5.013-11.615c7.104 3.02 11.794 10.019 11.794 17.82 0 2.03-.316 4.038-.941 5.97a2.501 2.501 0 0 0 .574 2.5 19.276 19.276 0 0 1 5.393 13.402c0 3.537-.959 6.954-2.766 9.958-.394.032-.789.048-1.181.048a14.326 14.326 0 0 1-9.654-3.719 2.497 2.497 0 0 0-3.531.172 2.499 2.499 0 0 0 .172 3.531 19.333 19.333 0 0 0 14.417 4.985 19.268 19.268 0 0 1 2.542 9.594 19.37 19.37 0 0 1-6.468 14.427 14.255 14.255 0 0 1-3.695.487c-5.172 0-10.099-2.811-12.66-7.5a14.518 14.518 0 0 0 1.981-8.883 2.495 2.495 0 0 0-2.736-2.239 2.5 2.5 0 0 0-2.238 2.737c.527 5.274-3.334 9.994-8.608 10.521a2.5 2.5 0 0 0 .498 4.976 14.526 14.526 0 0 0 7.667-3.142c3.637 5.37 9.737 8.543 16.114 8.543.951 0 1.909-.071 2.865-.215.021.353.051.706.051 1.056 0 8.592-6.141 16.071-14.444 17.849a19.477 19.477 0 0 0-3.036-5.888 19.418 19.418 0 0 0-11.193-7.211 2.494 2.494 0 0 0-2.989 1.889 2.5 2.5 0 0 0 1.889 2.989c1.031.232 2.022.59 2.968 1.036a14.42 14.42 0 0 1-5.788 5.843 14.299 14.299 0 0 1-6.864 1.755c-4.764 0-9.394-2.368-12.12-6.576a9.621 9.621 0 0 1 1.245-1.03 9.55 9.55 0 0 1 7.196-1.532 2.502 2.502 0 0 0 2.913-2.004 2.5 2.5 0 0 0-2.003-2.913 14.834 14.834 0 0 0-2.687-.247c-2.929 0-5.787.88-8.252 2.576a14.518 14.518 0 0 0-6.087 9.382 2.5 2.5 0 0 0 4.916.909c.023-.122.058-.24.085-.36 3.737 4.375 9.196 6.795 14.792 6.795 3.138 0 6.318-.761 9.262-2.366a19.428 19.428 0 0 0 7.495-7.326c.439.444.859.908 1.239 1.41a14.44 14.44 0 0 1 2.63 5.918 13.879 13.879 0 0 1-15.308 7.719 2.493 2.493 0 0 0-2.543 1.023 15.576 15.576 0 0 1-12.773 6.683c-7.414 0-15.555-7.082-15.555-13.532V167.21a18.66 18.66 0 0 0 3.377.311zm12.172 37.104a17.078 17.078 0 0 0 14.005-7.327.996.996 0 0 1 1.017-.408c.996.199 2.016.3 3.032.3 5.933 0 11.399-3.475 13.927-8.852a1.5 1.5 0 0 0 .114-.928 15.996 15.996 0 0 0-2.906-6.534 15.883 15.883 0 0 0-1.367-1.558 1.502 1.502 0 0 0-2.365.302 17.916 17.916 0 0 1-6.916 6.761 17.901 17.901 0 0 1-8.544 2.183 17.917 17.917 0 0 1-13.651-6.27 1.502 1.502 0 0 0-2.605.645l-.025.101c-.026.104-.052.208-.072.315a1 1 0 1 1-1.966-.363 13.03 13.03 0 0 1 5.462-8.419 13.002 13.002 0 0 1 7.402-2.312c.803 0 1.616.075 2.414.222.542.101.901.623.801 1.165a1.001 1.001 0 0 1-1.165.802 11.224 11.224 0 0 0-2.041-.188 11.036 11.036 0 0 0-7.715 3.146 1.5 1.5 0 0 0-.217 1.894c2.945 4.546 7.946 7.26 13.379 7.26 2.636 0 5.258-.67 7.582-1.938a15.873 15.873 0 0 0 6.391-6.45 1.497 1.497 0 0 0-.681-2.066 15.855 15.855 0 0 0-3.278-1.143 1.001 1.001 0 0 1-.755-1.197.99.99 0 0 1 1.195-.755c4.112.927 7.78 3.29 10.328 6.654a17.911 17.911 0 0 1 2.801 5.435 1.501 1.501 0 0 0 1.744 1.015c9.057-1.939 15.63-10.063 15.63-19.316 0-.298-.018-.599-.038-.9l-.015-.244a1.498 1.498 0 0 0-1.721-1.395 17.94 17.94 0 0 1-17.514-7.687 1.498 1.498 0 0 0-2.181-.329 13.03 13.03 0 0 1-6.874 2.819.995.995 0 0 1-1.098-.896 1.001 1.001 0 0 1 .895-1.095 11.043 11.043 0 0 0 7.492-4.023 11.04 11.04 0 0 0 2.46-8.14.993.993 0 0 1 .221-.733.989.989 0 0 1 .768-.366 1 1 0 0 1 1.001.9 12.98 12.98 0 0 1-1.779 7.968c-.27.456-.28 1.02-.026 1.485a15.915 15.915 0 0 0 13.977 8.281 15.74 15.74 0 0 0 4.084-.539c.227-.061.437-.174.612-.331a20.899 20.899 0 0 0 6.968-15.545c0-3.628-.948-7.203-2.74-10.338a1.501 1.501 0 0 0-1.41-.752 17.85 17.85 0 0 1-13.303-4.6.992.992 0 0 1-.327-.692.996.996 0 0 1 1-1.049c.248 0 .486.092.67.259a15.833 15.833 0 0 0 11.964 4.055 1.501 1.501 0 0 0 1.165-.722 20.824 20.824 0 0 0 2.98-10.731 20.769 20.769 0 0 0-5.81-14.44 1 1 0 0 1-.23-1 20.872 20.872 0 0 0 1.014-6.432 20.833 20.833 0 0 0-12.707-19.2 1.499 1.499 0 0 0-1.564.242 15.806 15.806 0 0 0-5.534 12.824 16.024 16.024 0 0 0 3.479 9.189 1.5 1.5 0 0 0 1.152.562 12.965 12.965 0 0 1 8.159 2.984 1 1 0 0 1-1.272 1.544 10.97 10.97 0 0 0-7.052-2.536c-.359 0-.723.017-1.083.052a11.035 11.035 0 0 0-7.508 3.995 1 1 0 1 1-1.544-1.272 13.08 13.08 0 0 1 5.452-3.907 1.5 1.5 0 0 0 .756-2.172 17.967 17.967 0 0 1-2.537-8.345c-.264-5.565 2.016-10.834 6.256-14.456a1.5 1.5 0 0 0 .465-1.562c-2.548-8.708-10.67-14.874-19.751-14.996h-.021a1.5 1.5 0 0 0-1.482 1.271 17.854 17.854 0 0 1-1.795 5.524 11.094 11.094 0 0 0 4.84 14.529.996.996 0 0 1 .414 1.352 1 1 0 0 1-1.352.415c-3.562-1.89-6.019-5.27-6.741-9.271a1.5 1.5 0 0 0-2.367-.94 18.238 18.238 0 0 1-3.555 2.057 1 1 0 0 1-.796-1.835 15.938 15.938 0 0 0 7.864-7.391c.036-.074.07-.148.103-.222.017-.038.032-.076.051-.113l.019-.036.023-.046a15.932 15.932 0 0 0 1.461-5.56 1.503 1.503 0 0 0-.112-.695 16.57 16.57 0 0 0-15.319-10.199c-8.148 0-15.213 6.065-16.432 14.108l-.012.065a7.655 7.655 0 0 0-.177 1.618v16.811a1.5 1.5 0 0 0 1.801 1.469c.441-.09.836-.159 1.209-.209a18.29 18.29 0 0 1 2.447-.166c3.924 0 7.662 1.267 10.81 3.664a17.796 17.796 0 0 1 6.901 11.848 1 1 0 1 1-1.982.268 15.804 15.804 0 0 0-6.13-10.525c-2.797-2.129-6.119-3.255-9.607-3.255a16.263 16.263 0 0 0-4.052.517c-.048.006-.096.012-.145.021a1.5 1.5 0 0 0-1.252 1.479v1.338a1.001 1.001 0 0 1-2 0v-23.26a9.6 9.6 0 0 1 .209-1.977l.014-.078c1.396-8.971 9.306-15.736 18.399-15.736 7.132 0 13.52 3.954 16.67 10.32a1.5 1.5 0 0 0 1.344.835h.033c.148-.003.295-.005.44-.005 10.328 0 19.412 6.961 22.09 16.928.121.451.445.819.876.997a22.795 22.795 0 0 1 14.142 21.141c0 1.932-.245 3.857-.727 5.723-.122.473-.006.976.31 1.348a22.853 22.853 0 0 1 5.442 14.802c0 4.058-1.077 8.044-3.115 11.527a1.499 1.499 0 0 0 0 1.515 22.843 22.843 0 0 1 3.115 11.528c0 6.17-2.551 12.169-6.999 16.46a1.5 1.5 0 0 0-.444 1.287 21.87 21.87 0 0 1 .212 3.021c0 10.36-7.679 19.567-17.862 21.418a1.507 1.507 0 0 0-.647.287l-.218.167a1.496 1.496 0 0 0-.446.552c-2.86 6.053-9.034 9.965-15.731 9.965-.654 0-1.316-.038-1.967-.112a1.5 1.5 0 0 0-1.331.541 18.994 18.994 0 0 1-14.757 7.005c-9.26 0-19.055-8.755-19.055-17.032v-26.129a.993.993 0 0 1 1.801-.587c.199.27.483.466.806.556a15.95 15.95 0 0 0 4.274.584c4.058 0 7.927-1.539 10.894-4.332a15.918 15.918 0 0 0 4.899-9.753.994.994 0 0 1 1.108-.877c.547.063.941.56.878 1.108a17.921 17.921 0 0 1-5.514 10.979 17.83 17.83 0 0 1-12.264 4.88c-1.018 0-2.068-.094-3.121-.281a1.496 1.496 0 0 0-1.225.328 1.5 1.5 0 0 0-.536 1.149v22.376c.007 7.304 8.773 15.031 17.062 15.031z"/></g><g><path d="M98.329 125.141v5.719a5.022 5.022 0 0 0 3.766 4.862l4.478 1.154-2.352 3.984a5.023 5.023 0 0 0 .776 6.099l4.044 4.044a5.024 5.024 0 0 0 6.102.775l3.981-2.35 1.154 4.479a5.022 5.022 0 0 0 4.862 3.764h5.719a5.026 5.026 0 0 0 4.863-3.767l1.153-4.477 3.982 2.351a5.022 5.022 0 0 0 6.101-.776l4.044-4.044a5.022 5.022 0 0 0 .775-6.101l-2.351-3.981 4.48-1.155a5.022 5.022 0 0 0 3.763-4.861v-5.719a5.023 5.023 0 0 0-3.766-4.863l-4.478-1.154 2.352-3.984a5.023 5.023 0 0 0-.776-6.099l-4.044-4.044a5.023 5.023 0 0 0-6.102-.775l-3.981 2.35-1.154-4.481a5.025 5.025 0 0 0-4.862-3.762h-5.719a5.022 5.022 0 0 0-4.862 3.764l-.001.003-1.153 4.477-3.983-2.351a5.025 5.025 0 0 0-6.1.777l-4.045 4.044a5.024 5.024 0 0 0-.774 6.101l2.351 3.981-4.479 1.154a5.021 5.021 0 0 0-3.764 4.862zm5.014-.021 7.695-1.983a2.5 2.5 0 0 0 1.53-3.691l-4.035-6.869 4.069-4.049 6.844 4.039a2.5 2.5 0 0 0 3.692-1.529l1.982-7.695-2.421-.624 2.442.61 5.74.014 1.982 7.695a2.5 2.5 0 0 0 3.692 1.529l6.869-4.034 4.048 4.069-4.039 6.844a2.499 2.499 0 0 0 1.53 3.691l7.709 2.004-.014 5.74-7.695 1.983a2.5 2.5 0 0 0-1.53 3.691l4.035 6.869-4.069 4.049-6.844-4.039a2.498 2.498 0 0 0-3.692 1.529l-2.004 7.709-5.74-.014-1.982-7.695a2.5 2.5 0 0 0-3.692-1.529l-6.869 4.034-4.048-4.069 4.039-6.844a2.499 2.499 0 0 0-1.53-3.691l-7.709-2.003.015-5.741z" style="fill:#ed9abc"/></g><g><path class="st3" d="m102.952 132.312 7.712 2.004c.302.078.554.297.674.586s.096.621-.062.89l-4.039 6.844a1.5 1.5 0 0 0 .228 1.82l4.048 4.069a1.497 1.497 0 0 0 1.823.235l6.873-4.037a1 1 0 0 1 1.476.613l1.982 7.695a1.5 1.5 0 0 0 1.449 1.126l5.74.014h.004a1.5 1.5 0 0 0 1.452-1.123l2.005-7.712a1.009 1.009 0 0 1 .969-.752c.179 0 .354.048.508.139l6.844 4.039a1.495 1.495 0 0 0 1.82-.229l4.069-4.049a1.5 1.5 0 0 0 .235-1.823l-4.037-6.872a1 1 0 0 1 .612-1.476l7.695-1.983a1.5 1.5 0 0 0 1.126-1.449l.014-5.74a1.498 1.498 0 0 0-1.123-1.455l-7.712-2.005a1.006 1.006 0 0 1-.674-.586 1.004 1.004 0 0 1 .062-.89l4.039-6.844a1.5 1.5 0 0 0-.228-1.82l-4.048-4.069a1.497 1.497 0 0 0-1.823-.235l-6.874 4.037a.993.993 0 0 1-.888.062 1.006 1.006 0 0 1-.586-.675l-1.982-7.695a1.5 1.5 0 0 0-1.453-1.126h-5.762a1.5 1.5 0 0 0-1.453 1.126l-1.982 7.695a1.004 1.004 0 0 1-1.477.613l-6.844-4.039a1.495 1.495 0 0 0-1.82.229l-4.069 4.049a1.5 1.5 0 0 0-.235 1.823l4.037 6.872a1 1 0 0 1-.612 1.476l-7.695 1.983a1.5 1.5 0 0 0-1.126 1.449l-.014 5.74a1.498 1.498 0 0 0 1.122 1.456zm.391-7.192 7.695-1.983a2.5 2.5 0 0 0 1.53-3.691l-4.035-6.869 4.069-4.049 6.844 4.039a2.497 2.497 0 0 0 2.228.157 2.5 2.5 0 0 0 1.464-1.686l1.982-7.695h5.762l1.982 7.695a2.5 2.5 0 0 0 3.692 1.53l6.869-4.034 4.048 4.069-4.039 6.844a2.499 2.499 0 0 0 1.53 3.691l7.709 2.004-.014 5.74-7.695 1.983a2.5 2.5 0 0 0-1.53 3.691l4.035 6.869-4.069 4.049-6.844-4.039a2.5 2.5 0 0 0-3.692 1.53l-2.004 7.709-5.74-.014-1.982-7.695a2.5 2.5 0 0 0-3.692-1.529l-6.869 4.034-4.048-4.069 4.039-6.844a2.499 2.499 0 0 0-1.53-3.691l-7.709-2.003.014-5.743z"/><path class="st3" d="M98.329 125.141v5.719a5.022 5.022 0 0 0 3.766 4.862l4.478 1.154-2.352 3.984a5.023 5.023 0 0 0 .776 6.099l4.044 4.044a5.022 5.022 0 0 0 6.101.774l3.981-2.35 1.154 4.479a5.022 5.022 0 0 0 4.862 3.764h5.719a5.026 5.026 0 0 0 4.863-3.767l1.153-4.477 3.982 2.351a5.018 5.018 0 0 0 6.1-.776l4.044-4.044a5.022 5.022 0 0 0 .775-6.101l-2.351-3.981 4.48-1.155a5.022 5.022 0 0 0 3.763-4.861v-5.719a5.023 5.023 0 0 0-3.766-4.863l-4.478-1.154 2.352-3.984a5.023 5.023 0 0 0-.776-6.099l-4.044-4.044a5.018 5.018 0 0 0-6.101-.775l-3.981 2.35-1.154-4.481a5.025 5.025 0 0 0-4.862-3.762h-5.719a5.022 5.022 0 0 0-4.862 3.764l-.001.003-1.153 4.477-3.983-2.351a5.02 5.02 0 0 0-6.1.777l-4.045 4.044a5.024 5.024 0 0 0-.774 6.101l2.351 3.981-4.479 1.154a5.023 5.023 0 0 0-3.763 4.863zm8.618-4.564a1.503 1.503 0 0 0 .918-2.216l-2.35-3.979a3.524 3.524 0 0 1 .542-4.279l4.045-4.044a3.505 3.505 0 0 1 2.493-1.032c.627 0 1.244.168 1.783.486l3.983 2.351a1.502 1.502 0 0 0 2.216-.917l1.148-4.455.006-.023a3.521 3.521 0 0 1 3.41-2.639h5.719a3.524 3.524 0 0 1 3.41 2.636l1.154 4.481a1.502 1.502 0 0 0 1.452 1.126c.265 0 .528-.07.762-.208l3.98-2.349a3.518 3.518 0 0 1 1.788-.488c.941 0 1.826.366 2.492 1.031l4.044 4.044a3.521 3.521 0 0 1 .545 4.276l-2.352 3.984c-.24.406-.275.901-.094 1.336s.555.761 1.012.879l4.476 1.153a3.525 3.525 0 0 1 2.642 3.411v5.719a3.521 3.521 0 0 1-2.637 3.409l-4.48 1.155a1.5 1.5 0 0 0-.917 2.216l2.349 3.979a3.525 3.525 0 0 1-.543 4.28l-4.044 4.044a3.5 3.5 0 0 1-2.492 1.032 3.53 3.53 0 0 1-1.786-.487l-3.982-2.351a1.502 1.502 0 0 0-2.215.917l-1.153 4.474a3.527 3.527 0 0 1-3.411 2.644h-5.719a3.521 3.521 0 0 1-3.41-2.638l-1.154-4.479a1.499 1.499 0 0 0-2.214-.917l-3.981 2.349a3.524 3.524 0 0 1-4.28-.543l-4.044-4.045a3.52 3.52 0 0 1-.545-4.275l2.352-3.984a1.5 1.5 0 0 0-.918-2.215l-4.476-1.153a3.524 3.524 0 0 1-2.642-3.41v-5.719a3.522 3.522 0 0 1 2.638-3.41l4.48-1.157z"/></g><g><path d="M139.75 128c0-6.479-5.271-11.75-11.75-11.75s-11.75 5.271-11.75 11.75 5.271 11.75 11.75 11.75 11.75-5.271 11.75-11.75zm-18.5 0c0-3.722 3.028-6.75 6.75-6.75s6.75 3.028 6.75 6.75-3.028 6.75-6.75 6.75-6.75-3.028-6.75-6.75z" style="fill:#d3d3d3"/></g><g><path class="st5" d="M136.25 128c0-4.549-3.701-8.25-8.25-8.25s-8.25 3.701-8.25 8.25 3.701 8.25 8.25 8.25 8.25-3.701 8.25-8.25zm-15 0c0-3.722 3.028-6.75 6.75-6.75s6.75 3.028 6.75 6.75-3.028 6.75-6.75 6.75-6.75-3.028-6.75-6.75z"/><path class="st5" d="M139.75 128c0-6.479-5.271-11.75-11.75-11.75s-11.75 5.271-11.75 11.75 5.271 11.75 11.75 11.75 11.75-5.271 11.75-11.75zm-22 0c0-5.652 4.598-10.25 10.25-10.25s10.25 4.598 10.25 10.25-4.598 10.25-10.25 10.25-10.25-4.598-10.25-10.25z"/></g></g></svg>